<mxfile host="app.diagrams.net" modified="2023-05-19T17:26:33.974Z" agent="Mozilla/5.0 (Windows NT 10.0; Win64; x64) AppleWebKit/537.36 (KHTML, like Gecko) Chrome/113.0.0.0 Safari/537.36 Edg/113.0.1774.42" etag="eoBOgp-iylLExA6AJRRj" version="21.3.2" type="github">
  <diagram id="C5RBs43oDa-KdzZeNtuy" name="Page-1">
    <mxGraphModel dx="2168" dy="813" grid="1" gridSize="10" guides="1" tooltips="1" connect="1" arrows="1" fold="1" page="1" pageScale="1" pageWidth="827" pageHeight="1169" math="0" shadow="0">
      <root>
        <mxCell id="WIyWlLk6GJQsqaUBKTNV-0" />
        <mxCell id="WIyWlLk6GJQsqaUBKTNV-1" parent="WIyWlLk6GJQsqaUBKTNV-0" />
        <mxCell id="NH6UCcypnFRTFc6faVXU-13" style="edgeStyle=orthogonalEdgeStyle;rounded=0;orthogonalLoop=1;jettySize=auto;html=1;exitX=0.5;exitY=0;exitDx=0;exitDy=0;entryX=0.5;entryY=1;entryDx=0;entryDy=0;" edge="1" parent="WIyWlLk6GJQsqaUBKTNV-1" source="NH6UCcypnFRTFc6faVXU-0" target="NH6UCcypnFRTFc6faVXU-8">
          <mxGeometry relative="1" as="geometry" />
        </mxCell>
        <mxCell id="NH6UCcypnFRTFc6faVXU-0" value="Заболевание" style="rounded=0;whiteSpace=wrap;html=1;" vertex="1" parent="WIyWlLk6GJQsqaUBKTNV-1">
          <mxGeometry x="15" y="200" width="120" height="60" as="geometry" />
        </mxCell>
        <mxCell id="NH6UCcypnFRTFc6faVXU-21" style="edgeStyle=orthogonalEdgeStyle;rounded=0;orthogonalLoop=1;jettySize=auto;html=1;exitX=0.5;exitY=1;exitDx=0;exitDy=0;entryX=0.5;entryY=0;entryDx=0;entryDy=0;" edge="1" parent="WIyWlLk6GJQsqaUBKTNV-1" source="NH6UCcypnFRTFc6faVXU-1">
          <mxGeometry relative="1" as="geometry">
            <mxPoint x="499" y="270" as="targetPoint" />
          </mxGeometry>
        </mxCell>
        <mxCell id="NH6UCcypnFRTFc6faVXU-65" style="edgeStyle=orthogonalEdgeStyle;rounded=0;orthogonalLoop=1;jettySize=auto;html=1;exitX=0;exitY=0.5;exitDx=0;exitDy=0;entryX=0.5;entryY=0;entryDx=0;entryDy=0;" edge="1" parent="WIyWlLk6GJQsqaUBKTNV-1" source="NH6UCcypnFRTFc6faVXU-1" target="NH6UCcypnFRTFc6faVXU-27">
          <mxGeometry relative="1" as="geometry" />
        </mxCell>
        <mxCell id="NH6UCcypnFRTFc6faVXU-1" value="Упражнение" style="rounded=0;whiteSpace=wrap;html=1;" vertex="1" parent="WIyWlLk6GJQsqaUBKTNV-1">
          <mxGeometry x="439" y="145" width="120" height="60" as="geometry" />
        </mxCell>
        <mxCell id="NH6UCcypnFRTFc6faVXU-17" style="edgeStyle=orthogonalEdgeStyle;rounded=0;orthogonalLoop=1;jettySize=auto;html=1;exitX=0.5;exitY=1;exitDx=0;exitDy=0;entryX=0.5;entryY=0;entryDx=0;entryDy=0;" edge="1" parent="WIyWlLk6GJQsqaUBKTNV-1" source="NH6UCcypnFRTFc6faVXU-2" target="NH6UCcypnFRTFc6faVXU-16">
          <mxGeometry relative="1" as="geometry" />
        </mxCell>
        <mxCell id="NH6UCcypnFRTFc6faVXU-2" value="Пользователь" style="rounded=0;whiteSpace=wrap;html=1;" vertex="1" parent="WIyWlLk6GJQsqaUBKTNV-1">
          <mxGeometry x="650" y="45" width="120" height="60" as="geometry" />
        </mxCell>
        <mxCell id="NH6UCcypnFRTFc6faVXU-3" value="Дмитрий" style="rounded=0;whiteSpace=wrap;html=1;" vertex="1" parent="WIyWlLk6GJQsqaUBKTNV-1">
          <mxGeometry x="650" y="260" width="120" height="60" as="geometry" />
        </mxCell>
        <mxCell id="NH6UCcypnFRTFc6faVXU-4" value="&lt;br&gt;&lt;table style=&quot;border-collapse:&lt;br/&gt; collapse;width:234pt&quot; width=&quot;312&quot; cellspacing=&quot;0&quot; cellpadding=&quot;0&quot; border=&quot;0&quot;&gt;&lt;tbody&gt;&lt;tr style=&quot;height:15.0pt&quot; height=&quot;20&quot;&gt;  &lt;td style=&quot;height:15.0pt;width:234pt;word-break:initial;&lt;br/&gt;  color:var(--cib-color-neutral-foreground);font-size:var(--cib-type-body1-font-size);&lt;br/&gt;  line-height:var(--cib-type-body1-line-height);font-weight:var(--cib-type-body1-font-weight);&lt;br/&gt;  font-variation-settings: var(--cib-type-body1-font-variation-settings)&quot; width=&quot;312&quot; height=&quot;20&quot;&gt;Широчайшие&lt;br&gt;  мышцы спины...&lt;/td&gt;&lt;/tr&gt;&lt;/tbody&gt;&lt;/table&gt;" style="rounded=0;whiteSpace=wrap;html=1;" vertex="1" parent="WIyWlLk6GJQsqaUBKTNV-1">
          <mxGeometry x="439" y="360" width="120" height="60" as="geometry" />
        </mxCell>
        <mxCell id="NH6UCcypnFRTFc6faVXU-70" style="edgeStyle=orthogonalEdgeStyle;rounded=0;orthogonalLoop=1;jettySize=auto;html=1;exitX=1;exitY=0.5;exitDx=0;exitDy=0;entryX=0;entryY=0.5;entryDx=0;entryDy=0;" edge="1" parent="WIyWlLk6GJQsqaUBKTNV-1" source="NH6UCcypnFRTFc6faVXU-5" target="NH6UCcypnFRTFc6faVXU-67">
          <mxGeometry relative="1" as="geometry" />
        </mxCell>
        <mxCell id="NH6UCcypnFRTFc6faVXU-5" value="&lt;table style=&quot;border-collapse:&lt;br/&gt; collapse;width:158pt&quot; width=&quot;210&quot; cellspacing=&quot;0&quot; cellpadding=&quot;0&quot; border=&quot;0&quot;&gt;&lt;tbody&gt;&lt;tr style=&quot;height:15.75pt&quot; height=&quot;21&quot;&gt;&lt;br/&gt;  &lt;td style=&quot;height:15.75pt;width:158pt&quot; width=&quot;210&quot; height=&quot;21&quot;&gt;Грудной миозит&lt;/td&gt;&lt;/tr&gt;&lt;/tbody&gt;&lt;/table&gt;" style="rounded=0;whiteSpace=wrap;html=1;" vertex="1" parent="WIyWlLk6GJQsqaUBKTNV-1">
          <mxGeometry x="149" y="45" width="120" height="60" as="geometry" />
        </mxCell>
        <mxCell id="NH6UCcypnFRTFc6faVXU-14" style="edgeStyle=orthogonalEdgeStyle;rounded=0;orthogonalLoop=1;jettySize=auto;html=1;exitX=0.5;exitY=0;exitDx=0;exitDy=0;entryX=0;entryY=0.5;entryDx=0;entryDy=0;" edge="1" parent="WIyWlLk6GJQsqaUBKTNV-1" source="NH6UCcypnFRTFc6faVXU-8" target="NH6UCcypnFRTFc6faVXU-5">
          <mxGeometry relative="1" as="geometry" />
        </mxCell>
        <mxCell id="NH6UCcypnFRTFc6faVXU-8" value="АКО" style="ellipse;whiteSpace=wrap;html=1;aspect=fixed;" vertex="1" parent="WIyWlLk6GJQsqaUBKTNV-1">
          <mxGeometry x="60" y="115" width="30" height="30" as="geometry" />
        </mxCell>
        <mxCell id="NH6UCcypnFRTFc6faVXU-18" style="edgeStyle=orthogonalEdgeStyle;rounded=0;orthogonalLoop=1;jettySize=auto;html=1;exitX=0.5;exitY=1;exitDx=0;exitDy=0;entryX=0.5;entryY=0;entryDx=0;entryDy=0;" edge="1" parent="WIyWlLk6GJQsqaUBKTNV-1" source="NH6UCcypnFRTFc6faVXU-16" target="NH6UCcypnFRTFc6faVXU-3">
          <mxGeometry relative="1" as="geometry" />
        </mxCell>
        <mxCell id="NH6UCcypnFRTFc6faVXU-16" value="АКО" style="ellipse;whiteSpace=wrap;html=1;aspect=fixed;" vertex="1" parent="WIyWlLk6GJQsqaUBKTNV-1">
          <mxGeometry x="695" y="160" width="30" height="30" as="geometry" />
        </mxCell>
        <mxCell id="NH6UCcypnFRTFc6faVXU-22" style="edgeStyle=orthogonalEdgeStyle;rounded=0;orthogonalLoop=1;jettySize=auto;html=1;exitX=0.5;exitY=1;exitDx=0;exitDy=0;entryX=0.5;entryY=0;entryDx=0;entryDy=0;" edge="1" parent="WIyWlLk6GJQsqaUBKTNV-1" source="NH6UCcypnFRTFc6faVXU-20" target="NH6UCcypnFRTFc6faVXU-4">
          <mxGeometry relative="1" as="geometry" />
        </mxCell>
        <mxCell id="NH6UCcypnFRTFc6faVXU-20" value="АКО" style="ellipse;whiteSpace=wrap;html=1;aspect=fixed;" vertex="1" parent="WIyWlLk6GJQsqaUBKTNV-1">
          <mxGeometry x="484" y="270" width="30" height="30" as="geometry" />
        </mxCell>
        <mxCell id="NH6UCcypnFRTFc6faVXU-25" value="&lt;table style=&quot;border-collapse:&lt;br/&gt; collapse;width:234pt&quot; width=&quot;312&quot; cellspacing=&quot;0&quot; cellpadding=&quot;0&quot; border=&quot;0&quot;&gt;&lt;tbody&gt;&lt;tr style=&quot;height:15.0pt&quot; height=&quot;20&quot;&gt;&lt;td style=&quot;height:15.0pt;width:234pt;word-break:initial;&lt;br/&gt;  color:var(--cib-color-neutral-foreground);font-size:var(--cib-type-body1-font-size);&lt;br/&gt;  line-height:var(--cib-type-body1-line-height);font-weight:var(--cib-type-body1-font-weight);&lt;br/&gt;  font-variation-settings: var(--cib-type-body1-font-variation-settings)&quot; width=&quot;312&quot; height=&quot;20&quot;&gt;&lt;/td&gt;&lt;/tr&gt;&lt;/tbody&gt;&lt;/table&gt;Растяжка грудной&lt;br&gt;клетки" style="rounded=0;whiteSpace=wrap;html=1;" vertex="1" parent="WIyWlLk6GJQsqaUBKTNV-1">
          <mxGeometry x="269" y="300" width="120" height="60" as="geometry" />
        </mxCell>
        <mxCell id="NH6UCcypnFRTFc6faVXU-66" style="edgeStyle=orthogonalEdgeStyle;rounded=0;orthogonalLoop=1;jettySize=auto;html=1;exitX=0.5;exitY=1;exitDx=0;exitDy=0;" edge="1" parent="WIyWlLk6GJQsqaUBKTNV-1" source="NH6UCcypnFRTFc6faVXU-27" target="NH6UCcypnFRTFc6faVXU-25">
          <mxGeometry relative="1" as="geometry" />
        </mxCell>
        <mxCell id="NH6UCcypnFRTFc6faVXU-27" value="АКО" style="ellipse;whiteSpace=wrap;html=1;aspect=fixed;" vertex="1" parent="WIyWlLk6GJQsqaUBKTNV-1">
          <mxGeometry x="314" y="215" width="30" height="30" as="geometry" />
        </mxCell>
        <mxCell id="NH6UCcypnFRTFc6faVXU-58" style="edgeStyle=orthogonalEdgeStyle;rounded=0;orthogonalLoop=1;jettySize=auto;html=1;exitX=0.5;exitY=0;exitDx=0;exitDy=0;entryX=0;entryY=0.5;entryDx=0;entryDy=0;" edge="1" parent="WIyWlLk6GJQsqaUBKTNV-1" source="NH6UCcypnFRTFc6faVXU-31" target="NH6UCcypnFRTFc6faVXU-48">
          <mxGeometry relative="1" as="geometry" />
        </mxCell>
        <mxCell id="NH6UCcypnFRTFc6faVXU-31" value="Грудной отдел" style="rounded=0;whiteSpace=wrap;html=1;" vertex="1" parent="WIyWlLk6GJQsqaUBKTNV-1">
          <mxGeometry x="-100" y="500" width="120" height="60" as="geometry" />
        </mxCell>
        <mxCell id="NH6UCcypnFRTFc6faVXU-57" style="edgeStyle=orthogonalEdgeStyle;rounded=0;orthogonalLoop=1;jettySize=auto;html=1;exitX=0.5;exitY=0;exitDx=0;exitDy=0;entryX=0.5;entryY=1;entryDx=0;entryDy=0;" edge="1" parent="WIyWlLk6GJQsqaUBKTNV-1" source="NH6UCcypnFRTFc6faVXU-33" target="NH6UCcypnFRTFc6faVXU-31">
          <mxGeometry relative="1" as="geometry" />
        </mxCell>
        <mxCell id="NH6UCcypnFRTFc6faVXU-33" value="АКО" style="ellipse;whiteSpace=wrap;html=1;aspect=fixed;" vertex="1" parent="WIyWlLk6GJQsqaUBKTNV-1">
          <mxGeometry x="-55" y="600" width="30" height="30" as="geometry" />
        </mxCell>
        <mxCell id="NH6UCcypnFRTFc6faVXU-47" style="edgeStyle=orthogonalEdgeStyle;rounded=0;orthogonalLoop=1;jettySize=auto;html=1;exitX=0.5;exitY=0;exitDx=0;exitDy=0;entryX=0.5;entryY=1;entryDx=0;entryDy=0;" edge="1" parent="WIyWlLk6GJQsqaUBKTNV-1" source="NH6UCcypnFRTFc6faVXU-46" target="NH6UCcypnFRTFc6faVXU-33">
          <mxGeometry relative="1" as="geometry" />
        </mxCell>
        <mxCell id="NH6UCcypnFRTFc6faVXU-46" value="Локализация" style="rounded=0;whiteSpace=wrap;html=1;" vertex="1" parent="WIyWlLk6GJQsqaUBKTNV-1">
          <mxGeometry x="-100" y="670" width="120" height="60" as="geometry" />
        </mxCell>
        <mxCell id="NH6UCcypnFRTFc6faVXU-60" style="edgeStyle=orthogonalEdgeStyle;rounded=0;orthogonalLoop=1;jettySize=auto;html=1;exitX=1;exitY=0.5;exitDx=0;exitDy=0;entryX=0;entryY=0.5;entryDx=0;entryDy=0;" edge="1" parent="WIyWlLk6GJQsqaUBKTNV-1" source="NH6UCcypnFRTFc6faVXU-48" target="NH6UCcypnFRTFc6faVXU-25">
          <mxGeometry relative="1" as="geometry" />
        </mxCell>
        <mxCell id="NH6UCcypnFRTFc6faVXU-62" style="edgeStyle=orthogonalEdgeStyle;rounded=0;orthogonalLoop=1;jettySize=auto;html=1;exitX=1;exitY=0.5;exitDx=0;exitDy=0;entryX=0.5;entryY=1;entryDx=0;entryDy=0;" edge="1" parent="WIyWlLk6GJQsqaUBKTNV-1" source="NH6UCcypnFRTFc6faVXU-48" target="NH6UCcypnFRTFc6faVXU-5">
          <mxGeometry relative="1" as="geometry" />
        </mxCell>
        <mxCell id="NH6UCcypnFRTFc6faVXU-63" style="edgeStyle=orthogonalEdgeStyle;rounded=0;orthogonalLoop=1;jettySize=auto;html=1;exitX=1;exitY=0.5;exitDx=0;exitDy=0;entryX=0;entryY=0.5;entryDx=0;entryDy=0;" edge="1" parent="WIyWlLk6GJQsqaUBKTNV-1" source="NH6UCcypnFRTFc6faVXU-48" target="NH6UCcypnFRTFc6faVXU-4">
          <mxGeometry relative="1" as="geometry" />
        </mxCell>
        <mxCell id="NH6UCcypnFRTFc6faVXU-48" value="Слот:локализация" style="rounded=1;whiteSpace=wrap;html=1;" vertex="1" parent="WIyWlLk6GJQsqaUBKTNV-1">
          <mxGeometry x="-20" y="370" width="170" height="40" as="geometry" />
        </mxCell>
        <mxCell id="NH6UCcypnFRTFc6faVXU-71" style="edgeStyle=orthogonalEdgeStyle;rounded=0;orthogonalLoop=1;jettySize=auto;html=1;exitX=1;exitY=0.5;exitDx=0;exitDy=0;entryX=0;entryY=0.5;entryDx=0;entryDy=0;" edge="1" parent="WIyWlLk6GJQsqaUBKTNV-1" source="NH6UCcypnFRTFc6faVXU-67" target="NH6UCcypnFRTFc6faVXU-3">
          <mxGeometry relative="1" as="geometry" />
        </mxCell>
        <mxCell id="NH6UCcypnFRTFc6faVXU-67" value="Слот:заболевание" style="rounded=1;whiteSpace=wrap;html=1;" vertex="1" parent="WIyWlLk6GJQsqaUBKTNV-1">
          <mxGeometry x="389" y="55" width="170" height="40" as="geometry" />
        </mxCell>
        <mxCell id="NH6UCcypnFRTFc6faVXU-84" style="edgeStyle=orthogonalEdgeStyle;rounded=0;orthogonalLoop=1;jettySize=auto;html=1;exitX=0;exitY=0.5;exitDx=0;exitDy=0;entryX=0.5;entryY=1;entryDx=0;entryDy=0;" edge="1" parent="WIyWlLk6GJQsqaUBKTNV-1" source="NH6UCcypnFRTFc6faVXU-72" target="NH6UCcypnFRTFc6faVXU-82">
          <mxGeometry relative="1" as="geometry" />
        </mxCell>
        <mxCell id="NH6UCcypnFRTFc6faVXU-72" value="Растяжение и расслабление" style="rounded=0;whiteSpace=wrap;html=1;" vertex="1" parent="WIyWlLk6GJQsqaUBKTNV-1">
          <mxGeometry x="380" y="500" width="120" height="60" as="geometry" />
        </mxCell>
        <mxCell id="NH6UCcypnFRTFc6faVXU-73" style="edgeStyle=orthogonalEdgeStyle;rounded=0;orthogonalLoop=1;jettySize=auto;html=1;exitX=0.5;exitY=0;exitDx=0;exitDy=0;entryX=0.5;entryY=1;entryDx=0;entryDy=0;" edge="1" parent="WIyWlLk6GJQsqaUBKTNV-1" source="NH6UCcypnFRTFc6faVXU-74" target="NH6UCcypnFRTFc6faVXU-72">
          <mxGeometry relative="1" as="geometry" />
        </mxCell>
        <mxCell id="NH6UCcypnFRTFc6faVXU-74" value="АКО" style="ellipse;whiteSpace=wrap;html=1;aspect=fixed;" vertex="1" parent="WIyWlLk6GJQsqaUBKTNV-1">
          <mxGeometry x="425" y="600" width="30" height="30" as="geometry" />
        </mxCell>
        <mxCell id="NH6UCcypnFRTFc6faVXU-75" style="edgeStyle=orthogonalEdgeStyle;rounded=0;orthogonalLoop=1;jettySize=auto;html=1;exitX=0.5;exitY=0;exitDx=0;exitDy=0;entryX=0.5;entryY=1;entryDx=0;entryDy=0;" edge="1" parent="WIyWlLk6GJQsqaUBKTNV-1" source="NH6UCcypnFRTFc6faVXU-76" target="NH6UCcypnFRTFc6faVXU-74">
          <mxGeometry relative="1" as="geometry" />
        </mxCell>
        <mxCell id="NH6UCcypnFRTFc6faVXU-81" style="edgeStyle=orthogonalEdgeStyle;rounded=0;orthogonalLoop=1;jettySize=auto;html=1;exitX=1;exitY=0.5;exitDx=0;exitDy=0;entryX=0.5;entryY=1;entryDx=0;entryDy=0;" edge="1" parent="WIyWlLk6GJQsqaUBKTNV-1" source="NH6UCcypnFRTFc6faVXU-76" target="NH6UCcypnFRTFc6faVXU-79">
          <mxGeometry relative="1" as="geometry" />
        </mxCell>
        <mxCell id="NH6UCcypnFRTFc6faVXU-76" value="Эффект" style="rounded=0;whiteSpace=wrap;html=1;" vertex="1" parent="WIyWlLk6GJQsqaUBKTNV-1">
          <mxGeometry x="380" y="670" width="120" height="60" as="geometry" />
        </mxCell>
        <mxCell id="NH6UCcypnFRTFc6faVXU-88" style="edgeStyle=orthogonalEdgeStyle;rounded=0;orthogonalLoop=1;jettySize=auto;html=1;exitX=0.5;exitY=0;exitDx=0;exitDy=0;" edge="1" parent="WIyWlLk6GJQsqaUBKTNV-1" source="NH6UCcypnFRTFc6faVXU-77" target="NH6UCcypnFRTFc6faVXU-87">
          <mxGeometry relative="1" as="geometry" />
        </mxCell>
        <mxCell id="NH6UCcypnFRTFc6faVXU-77" value="Согревание" style="rounded=0;whiteSpace=wrap;html=1;" vertex="1" parent="WIyWlLk6GJQsqaUBKTNV-1">
          <mxGeometry x="559" y="500" width="120" height="60" as="geometry" />
        </mxCell>
        <mxCell id="NH6UCcypnFRTFc6faVXU-78" style="edgeStyle=orthogonalEdgeStyle;rounded=0;orthogonalLoop=1;jettySize=auto;html=1;exitX=0.5;exitY=0;exitDx=0;exitDy=0;entryX=0.5;entryY=1;entryDx=0;entryDy=0;" edge="1" parent="WIyWlLk6GJQsqaUBKTNV-1" source="NH6UCcypnFRTFc6faVXU-79" target="NH6UCcypnFRTFc6faVXU-77">
          <mxGeometry relative="1" as="geometry" />
        </mxCell>
        <mxCell id="NH6UCcypnFRTFc6faVXU-79" value="АКО" style="ellipse;whiteSpace=wrap;html=1;aspect=fixed;" vertex="1" parent="WIyWlLk6GJQsqaUBKTNV-1">
          <mxGeometry x="604" y="590" width="30" height="30" as="geometry" />
        </mxCell>
        <mxCell id="NH6UCcypnFRTFc6faVXU-85" style="edgeStyle=orthogonalEdgeStyle;rounded=0;orthogonalLoop=1;jettySize=auto;html=1;exitX=0.5;exitY=0;exitDx=0;exitDy=0;entryX=0.5;entryY=1;entryDx=0;entryDy=0;" edge="1" parent="WIyWlLk6GJQsqaUBKTNV-1" source="NH6UCcypnFRTFc6faVXU-82" target="NH6UCcypnFRTFc6faVXU-25">
          <mxGeometry relative="1" as="geometry" />
        </mxCell>
        <mxCell id="NH6UCcypnFRTFc6faVXU-82" value="Слот:эффект" style="rounded=1;whiteSpace=wrap;html=1;" vertex="1" parent="WIyWlLk6GJQsqaUBKTNV-1">
          <mxGeometry x="244" y="440" width="170" height="40" as="geometry" />
        </mxCell>
        <mxCell id="NH6UCcypnFRTFc6faVXU-89" style="edgeStyle=orthogonalEdgeStyle;rounded=0;orthogonalLoop=1;jettySize=auto;html=1;exitX=0.5;exitY=0;exitDx=0;exitDy=0;entryX=1;entryY=0.5;entryDx=0;entryDy=0;" edge="1" parent="WIyWlLk6GJQsqaUBKTNV-1" source="NH6UCcypnFRTFc6faVXU-87" target="NH6UCcypnFRTFc6faVXU-4">
          <mxGeometry relative="1" as="geometry" />
        </mxCell>
        <mxCell id="NH6UCcypnFRTFc6faVXU-87" value="Слот:эффект" style="rounded=1;whiteSpace=wrap;html=1;" vertex="1" parent="WIyWlLk6GJQsqaUBKTNV-1">
          <mxGeometry x="534" y="430" width="170" height="40" as="geometry" />
        </mxCell>
      </root>
    </mxGraphModel>
  </diagram>
</mxfile>
